<svg xmlns="http://www.w3.org/2000/svg" xmlns:xlink="http://www.w3.org/1999/xlink" viewBox="0 0 140.41 140.18"><defs><style>.cls-1{fill:url(#未命名的渐变_154);}</style><linearGradient id="未命名的渐变_154" x1="70.21" y1="-5.51" x2="70.21" y2="135.82" gradientUnits="userSpaceOnUse"><stop offset="0" stop-color="#ff0059"/><stop offset="1" stop-color="#380091"/></linearGradient></defs><title>资源 1</title><g id="图层_2" data-name="图层 2"><g id="图层_1-2" data-name="图层 1"><path class="cls-1" d="M98.9,0A42.27,42.27,0,0,0,70.21,10.4,42.27,42.27,0,0,0,41.52,0C18.3.51,0,20.07,0,43.29v82.24a14.65,14.65,0,0,0,14.65,14.65h0A14.65,14.65,0,0,0,29.3,125.53V42.83A13.4,13.4,0,0,1,41.15,29.36,13.14,13.14,0,0,1,55.56,42.42v83.11a14.65,14.65,0,0,0,14.65,14.65h0a14.65,14.65,0,0,0,14.65-14.65V42.81A13.38,13.38,0,0,1,96.74,29.36a13.13,13.13,0,0,1,14.38,13.06v83.11a14.64,14.64,0,0,0,14.64,14.65h0a14.65,14.65,0,0,0,14.65-14.65V43.28C140.41,20.06,122.12.5,98.9,0Z"/></g></g></svg>